<?xml version="1.0" encoding="utf-8"?>
<!-- Generator: Adobe Illustrator 19.0.0, SVG Export Plug-In . SVG Version: 6.00 Build 0)  -->
<svg version="1.1" id="圖層_1" xmlns="http://www.w3.org/2000/svg" xmlns:xlink="http://www.w3.org/1999/xlink" x="0px" y="0px"
	 width="153px" height="36px" viewBox="-7.6 403.4 153 36" style="enable-background:new -7.6 403.4 153 36;" xml:space="preserve">
<style type="text/css">
	.st0{fill:#E60012;}
</style>
<g>
	<path d="M30.3,408.9c-1.3-1.8-4.5-2.8-7.1-2.7c-5.8,0.4-10.7,5.1-12.4,10.3c-1.8,5.4,1.3,10.4,7,10.4c2.9,0,6-1.3,8.5-3.3l-0.9,3.5
		c-2.6,1.6-5.5,2.5-8.2,2.5c-7.2,0-11.7-5.8-9.7-12.9c1.9-7.2,9.4-13.1,16.7-13.1c2.8,0,5.1,0.8,6.9,2.5L30.3,408.9z"/>
	<path d="M34.3,429.5c4.5,0,9.1-3.6,10.3-8.1c1.2-4.5-1.4-8.2-6-8.2c-4.6,0-9.1,3.6-10.3,8.2C27.2,425.9,29.8,429.5,34.3,429.5z
		 M38.1,415.7c3.3,0,4.8,2.6,4,5.7c-0.8,3.2-3.8,5.7-7,5.7c-3.3,0-4.8-2.6-4-5.7C31.9,418.2,34.8,415.7,38.1,415.7z"/>
	<path class="st0" d="M97.3,429.5c4.5,0,9.1-3.6,10.3-8.1c1.2-4.5-1.4-8.2-6-8.2c-4.6,0-9.1,3.6-10.3,8.2
		C90.1,425.9,92.8,429.5,97.3,429.5z M101,415.7c3.3,0,4.8,2.6,4,5.7c-0.8,3.2-3.8,5.7-7,5.7c-3.3,0-4.8-2.6-4-5.7
		C94.8,418.2,97.8,415.7,101,415.7z"/>
	<path d="M51,416c0,0,1.4-2.1,4-2.1c0.9,0,1.5,0.3,2.1,0.7l-1.7,2.2c-0.4-0.4-1-0.5-1.7-0.4c-2.7,0.5-4.2,5-4.7,7l-1.6,6h-2.6
		l4.1-15.1h2.6L51,416z"/>
	<path class="st0" d="M86.6,416c0,0,1.4-2.1,4-2.1c0.9,0,1.5,0.3,2.1,0.7l-1.7,2.2c-0.4-0.4-1-0.5-1.7-0.4c-2.7,0.5-4.2,5-4.7,7
		l-1.6,6h-2.6l4.1-15.1h2.6L86.6,416z"/>
	<path d="M70.4,421.9c1.5-4.6,0-8.7-5-8.7c-4.8,0-8.5,3.8-9.7,8.4c-1.2,4.4,0.8,8,5.4,8c3.2,0,6.1-1.6,8.3-4.3l-1.9-1.3
		c-1.5,1.8-3.3,3.2-5.6,3.2c-3,0-4.4-2.3-3.7-5.2L70.4,421.9L70.4,421.9z M59,419.7c0.9-2.2,3.5-4,5.8-4c2.3,0,3.7,1.8,3.5,4H59z"/>
	<path class="st0" d="M75,429.5h-2.6l3.5-13.1h-2.7l0.7-2.4h2.7l1.5-5.6h2.6l-1.5,5.6h2.8l-0.7,2.4h-2.8L75,429.5z"/>
	<path class="st0" d="M114.2,416.4c3.8-4,10.5-3.1,8.7,3.4l-2.6,9.8h-2.6l2.3-8.5c0.6-2.1,0.7-4.6-2.3-4.6c-3.6,0-4.5,3.8-5.1,6
		l-1.9,7.1h-2.6l4-15.1h2.6L114.2,416.4z"/>
	<path class="st0" d="M144.5,418.8L144.5,418.8c-0.8-1.5-2-2.5-3.9-2.5c-3,0-5.8,2.5-6.6,5.5c-0.8,2.9,0.5,5.5,3.6,5.5
		c2.1,0,3.8-0.9,5.4-2.5h0.1l-0.9,3.4c-1.7,1-3.3,1.5-5,1.5c-4.4,0-6.9-3.3-5.7-7.8c1.2-4.4,5.6-7.8,9.9-7.8c1.6,0,3.1,0.5,4.1,1.5
		L144.5,418.8z"/>
	<g>
		<path class="st0" d="M126.3,429.5h-2.6l4.2-15.6h2.6L126.3,429.5z"/>
		<path class="st0" d="M132.3,409.1c-0.3,1-1.3,1.9-2.3,1.9s-1.6-0.8-1.4-1.9c0.3-1,1.3-1.9,2.3-1.9
			C132,407.3,132.6,408.1,132.3,409.1z"/>
	</g>
	<path class="st0" d="M27.7,435.7c-10.2-0.2-22-2.4-27.8-5.9c-4.7-2.9-4.4-6.9,5.5-9c-12.5,0.9-17.4,7.1-8.5,12.3
		c5.7,3.4,15.3,6,26.8,6c17.7,0,34.3-4,40.1-7.5C63.9,431.6,50.4,436.1,27.7,435.7z"/>
</g>
</svg>
